999
FreeCAD v0.20 29410 (Git)
  0
SECTION
  2
HEADER
  9
$ACADVER
  1
AC1014
  9
$ACADMAINTVER
 70
     9
  9
$DWGCODEPAGE
  3
ANSI_1252
  9
$TEXTSTYLE
  7
STANDARD
  9
$DIMSTYLE
  2
STANDARD
  9
$DIMTXSTY
  7
STANDARD
  9
$CMLSTYLE
  2
STANDARD
  9
$LUNITS
 70
2
  9
$INSUNITS
 70
4
  9
$PEXTMAX
 10
50
 20
50
 30
50
  9
$PEXTMIN
 10
0
 20
0
 30
0
  9
$HANDSEED
  5
FFFF
  0
ENDSEC
  0
SECTION
  2
CLASSES
  0
CLASS
  1
ACDBDICTIONARYWDFLT
  2
AcDbDictionaryWithDefault
  3
ObjectDBX Classes
 90
        0
280
     0
281
     0
  0
CLASS
  1
XRECORD
  2
AcDbXrecord
  3
ObjectDBX Classes
 90
        0
280
     0
281
     0
  0
CLASS
  1
LWPOLYLINE
  2
AcDbPolyline
  3
ObjectDBX Classes
 90
        0
280
     0
281
     1
  0
ENDSEC
  0
SECTION
  2
TABLES
  0
TABLE
  2
VPORT
  5
20
330
0
100
AcDbSymbolTable
 70
     1
  0
VPORT
  5
21
330
20
100
AcDbSymbolTableRecord
100
AcDbViewportTableRecord
  2
*ACTIVE
 70
     0
  0
ENDTAB
  0
TABLE
  2
LTYPE
  5
22
330
0
100
AcDbSymbolTable
 70
     1
  0
LTYPE
  5
23
330
21
100
AcDbSymbolTableRecord
100
AcDbLinetypeTableRecord
  2
BYBLOCK
 70
     0
  3

 72
    65
 73
     0
 40
0.0
  0
LTYPE
  5
24
330
21
100
AcDbSymbolTableRecord
100
AcDbLinetypeTableRecord
  2
BYLAYER
 70
     0
  3

 72
    65
 73
     0
 40
0.0
  0
LTYPE
  5
25
330
21
100
AcDbSymbolTableRecord
100
AcDbLinetypeTableRecord
  2
CONTINUOUS
 70
     0
  3
Solid line
 72
    65
 73
     0
 40
0.0
  0
ENDTAB
  0
TABLE
  2
LAYER
  5
A22
330
0
100
AcDbSymbolTable
 70
3
  0
LAYER
  5
A23
330
A22
100
AcDbSymbolTableRecord
100
AcDbLayerTableRecord
  2
0
 70
   0
 62
   7
  6
CONTINUOUS
  0
LAYER
  5
A24
330
A22
100
AcDbSymbolTableRecord
100
AcDbLayerTableRecord
  2
none
 70
    0
 62
    7
  6
CONTINUOUS
  0
LAYER
  5
A25
330
A22
100
AcDbSymbolTableRecord
100
AcDbLayerTableRecord
  2
Shape2DView004
 70
    0
 62
    7
  6
CONTINUOUS
  0
ENDTAB
  0
TABLE
  2
STYLE
  5
70
330
0
100
AcDbSymbolTable
 70
     2
  0
STYLE
  5
71
330
70
100
AcDbSymbolTableRecord
100
AcDbTextStyleTableRecord
  2
STANDARD
 70
     0
 40
0.0
 41
1.0
 50
0.0
 71
     0
 42
2.5
  3
arial.ttf
  4

  0
STYLE
  5
72
330
70
100
AcDbSymbolTableRecord
100
AcDbTextStyleTableRecord
  2
ANNOTATIVE
 70
     0
 40
0.0
 41
1.0
 50
0.0
 71
     0
 42
2.5
  3
arial.ttf
  4

  0
ENDTAB
  0
TABLE
  2
VIEW
  5
73
330
0
100
AcDbSymbolTable
 70
     0
  0
ENDTAB
  0
TABLE
  2
UCS
  5
74
330
0
100
AcDbSymbolTable
 70
     0
  0
ENDTAB
  0
TABLE
  2
APPID
  5
75
330
0
100
AcDbSymbolTable
 70
     2
  0
APPID
  5
76
330
75
100
AcDbSymbolTableRecord
100
AcDbRegAppTableRecord
  2
ACAD
 70
     0
  0
APPID
  5
77
330
75
100
AcDbSymbolTableRecord
100
AcDbRegAppTableRecord
  2
ACADANNOTATIVE
 70
     0
  0
ENDTAB
  0
TABLE
  2
DIMSTYLE
  5
78
330
0
100
AcDbSymbolTable
 70
     2
  0
DIMSTYLE
105
79
330
78
100
AcDbSymbolTableRecord
100
AcDbDimStyleTableRecord
  2
STANDARD
 70
     0
  3

  4

  5

  6

  7

 40
0.0
 41
2.5
 42
0.625
 43
3.75
 44
1.25
 45
0.0
 46
0.0
 47
0.0
 48
0.0
140
2.5
141
2.5
142
0.0
143
0.03937007874016
144
1.0
145
0.0
146
1.0
147
0.625
 71
     0
 72
     0
 73
     0
 74
     0
 75
     0
 76
     0
 77
     1
 78
     8
170
     0
171
     3
172
     1
173
     0
174
     0
175
     0
176
     0
177
     0
178
     0
270
     2
271
     2
272
     2
273
     2
274
     3
340
71
275
     0
280
     0
281
     0
282
     0
283
     0
284
     8
285
     0
286
     0
287
     3
288
     0
  0
ENDTAB
  0
TABLE
  2
BLOCK_RECORD
  5
A01
330
0
100
AcDbSymbolTable
  70
5
  0
BLOCK_RECORD
  5
A02
330
A01
100
AcDbSymbolTableRecord
100
AcDbBlockTableRecord
  2
*MODEL_SPACE
  0
BLOCK_RECORD
  5
A03
330
A01
100
AcDbSymbolTableRecord
100
AcDbBlockTableRecord
  2
*PAPER_SPACE
  0
ENDTAB
  0
ENDSEC
  0
SECTION
  2
BLOCKS
  0
BLOCK
  5
A04
330
A02
100
AcDbEntity
  8
0
100
AcDbBlockBegin
  2
*MODEL_SPACE
 70
   0
 10
0
 20
0
 30
0
  3
*MODEL_SPACE
  1
 
  0
ENDBLK
  5
A05
330
A02
100
AcDbEntity
  8
0
100
AcDbBlockEnd
  0
BLOCK
  5
A06
330
A03
100
AcDbEntity
 67
1
  8
0
100
AcDbBlockBegin
  2
*PAPER_SPACE
 70
   0
 10
0
 20
0
 30
0
  3
*PAPER_SPACE
  1
 
  0
ENDBLK
  5
A07
330
A03
100
AcDbEntity
 67
    1
  8
0
100
AcDbBlockEnd
  0
ENDSEC
  0
SECTION
  2
ENTITIES
  0
CIRCLE
  5
A08
330
A02
100
AcDbEntity
  8
Shape2DView004
100
AcDbCircle
 10
-7.27931e-17
 20
124
 40
3.25
  0
CIRCLE
  5
A09
330
A02
100
AcDbEntity
  8
Shape2DView004
100
AcDbCircle
 10
77.3345
 20
52.066
 40
1.5
  0
CIRCLE
  5
A0A
330
A02
100
AcDbEntity
  8
Shape2DView004
100
AcDbCircle
 10
-13.4716
 20
123
 40
1.5
  0
CIRCLE
  5
A0B
330
A02
100
AcDbEntity
  8
Shape2DView004
100
AcDbCircle
 10
13.4716
 20
123
 40
1.5
  0
CIRCLE
  5
A0C
330
A02
100
AcDbEntity
  8
Shape2DView004
100
AcDbCircle
 10
-40
 20
29.5
 40
1.5
  0
CIRCLE
  5
A0D
330
A02
100
AcDbEntity
  8
Shape2DView004
100
AcDbCircle
 10
40
 20
27
 40
1.5
  0
CIRCLE
  5
A0E
330
A02
100
AcDbEntity
  8
Shape2DView004
100
AcDbCircle
 10
-87.7645
 20
48
 40
1.5
  0
CIRCLE
  5
A0F
330
A02
100
AcDbEntity
  8
Shape2DView004
100
AcDbCircle
 10
88
 20
27
 40
1.5
  0
SPLINE
  5
A10
330
A02
100
AcDbEntity
  8
Shape2DView004
100
AcDbSpline
210
0
220
0
230
1
 70
8
 71
3
 72
26
 73
22
 74
0
 40
0
 40
0
 40
0
 40
0
 40
0.17503
 40
0.17503
 40
0.17503
 40
0.350059
 40
0.350059
 40
0.350059
 40
0.525089
 40
0.525089
 40
0.525089
 40
0.700118
 40
0.700118
 40
0.700118
 40
0.875148
 40
0.875148
 40
0.875148
 40
1.05018
 40
1.05018
 40
1.05018
 40
1.22521
 40
1.22521
 40
1.22521
 40
1.22521
 10
-89.7447
 20
43.5003
 30
0
 10
-90.1319
 20
43.3359
 30
0
 10
-90.5674
 20
43.1935
 30
0
 10
-91.0328
 20
43.1088
 30
0
 10
-91.4981
 20
43.0241
 30
0
 10
-91.9935
 20
42.9972
 30
0
 10
-92.4656
 20
43.0681
 30
0
 10
-92.9377
 20
43.1389
 30
0
 10
-93.3865
 20
43.3076
 30
0
 10
-93.7375
 20
43.579
 30
0
 10
-94.0884
 20
43.8505
 30
0
 10
-94.3413
 20
44.2247
 30
0
 10
-94.4616
 20
44.6514
 30
0
 10
-94.5819
 20
45.0781
 30
0
 10
-94.5696
 20
45.5572
 30
0
 10
-94.4583
 20
46.0216
 30
0
 10
-94.347
 20
46.4859
 30
0
 10
-94.1367
 20
46.9355
 30
0
 10
-93.8837
 20
47.3354
 30
0
 10
-93.6306
 20
47.7352
 30
0
 10
-93.3356
 20
48.0857
 30
0
 10
-93.0382
 20
48.3831
 30
0
  0
LINE
  5
A11
330
A02
100
AcDbEntity
  8
Shape2DView004
100
AcDbLine
 10
-93.0382
 20
48.3831
 30
0
 11
-14.1421
 21
127.279
 31
0
  0
LINE
  5
A12
330
A02
100
AcDbEntity
  8
Shape2DView004
100
AcDbLine
 10
-89.7447
 20
43.5003
 30
0
 11
-60.1888
 21
56.0461
 31
0
  0
ARC
  5
A13
330
A02
100
AcDbEntity
  8
Shape2DView004
100
AcDbCircle
 10
-55.5
 20
45
 30
0
 40
12
100
AcDbArc
 50
-47
 51
113
  0
LINE
  5
A14
330
A02
100
AcDbEntity
  8
Shape2DView004
100
AcDbLine
 10
-47.316
 20
36.2238
 30
0
 11
-54.8544
 21
29.1941
 31
0
  0
SPLINE
  5
A15
330
A02
100
AcDbEntity
  8
Shape2DView004
100
AcDbSpline
210
0
220
0
230
1
 70
8
 71
3
 72
20
 73
16
 74
0
 40
0
 40
0
 40
0
 40
0
 40
0.200378
 40
0.200378
 40
0.200378
 40
0.400757
 40
0.400757
 40
0.400757
 40
0.534342
 40
0.534342
 40
0.534342
 40
0.801514
 40
0.801514
 40
0.801514
 40
0.935099
 40
0.935099
 40
0.935099
 40
0.935099
 10
-52.8084
 20
24
 30
0
 10
-53.4066
 20
24
 30
0
 10
-54.028
 20
24.0822
 30
0
 10
-54.5817
 20
24.2817
 30
0
 10
-55.1371
 20
24.4802
 30
0
 10
-55.6154
 20
24.8012
 30
0
 10
-55.922
 20
25.2242
 30
0
 10
-56.1268
 20
25.5059
 30
0
 10
-56.2568
 20
25.8321
 30
0
 10
-56.2986
 20
26.1771
 30
0
 10
-56.3821
 20
26.8671
 30
0
 10
-56.1127
 20
27.6323
 30
0
 10
-55.6532
 20
28.2906
 30
0
 10
-55.4234
 20
28.6197
 30
0
 10
-55.1461
 20
28.9221
 30
0
 10
-54.8544
 20
29.1941
 30
0
  0
LINE
  5
A16
330
A02
100
AcDbEntity
  8
Shape2DView004
100
AcDbLine
 10
-52.8084
 20
24
 30
0
 11
93
 21
24
 31
0
  0
LINE
  5
A17
330
A02
100
AcDbEntity
  8
Shape2DView004
100
AcDbLine
 10
93
 20
24
 30
0
 11
93
 21
48.4214
 31
0
  0
LINE
  5
A18
330
A02
100
AcDbEntity
  8
Shape2DView004
100
AcDbLine
 10
14.1421
 20
127.279
 30
0
 11
93
 21
48.4214
 31
0
  0
SPLINE
  5
A19
330
A02
100
AcDbEntity
  8
Shape2DView004
100
AcDbSpline
210
0
220
0
230
1
 70
8
 71
3
 72
17
 73
13
 74
0
 40
0
 40
0
 40
0
 40
0
 40
1.18217
 40
1.18217
 40
1.18217
 40
2.36433
 40
2.36433
 40
2.36433
 40
2.95541
 40
2.95541
 40
2.95541
 40
4.13758
 40
4.13758
 40
4.13758
 40
4.13758
 10
-14.1421
 20
127.279
 30
0
 10
-11.285
 20
130.136
 30
0
 10
-8.57125
 20
132.088
 30
0
 10
-5.9143
 20
133.254
 30
0
 10
-3.25736
 20
134.42
 30
0
 10
-0.657211
 20
134.801
 30
0
 10
1.962
 20
134.415
 30
0
 10
3.27004
 20
134.223
 30
0
 10
4.58753
 20
133.836
 30
0
 10
5.91447
 20
133.254
 30
0
 10
8.57147
 20
132.09
 30
0
 10
11.285
 20
130.136
 30
0
 10
14.1421
 20
127.279
 30
0
  0
LINE
  5
A1A
330
A02
100
AcDbEntity
  8
Shape2DView004
100
AcDbLine
 10
54.5
 20
35
 30
0
 11
40.5
 21
35
 31
0
  0
ARC
  5
A1B
330
A02
100
AcDbEntity
  8
Shape2DView004
100
AcDbCircle
 10
40.5
 20
40.5
 30
0
 40
5.5
100
AcDbArc
 50
180
 51
-90
  0
LINE
  5
A1C
330
A02
100
AcDbEntity
  8
Shape2DView004
100
AcDbLine
 10
35
 20
40.5
 30
0
 11
35
 21
54.5
 31
0
  0
ARC
  5
A1D
330
A02
100
AcDbEntity
  8
Shape2DView004
100
AcDbCircle
 10
40.5
 20
54.5
 30
0
 40
5.5
100
AcDbArc
 50
90
 51
180
  0
LINE
  5
A1E
330
A02
100
AcDbEntity
  8
Shape2DView004
100
AcDbLine
 10
40.5
 20
60
 30
0
 11
54.5
 21
60
 31
0
  0
ARC
  5
A1F
330
A02
100
AcDbEntity
  8
Shape2DView004
100
AcDbCircle
 10
54.5
 20
54.5
 30
0
 40
5.5
100
AcDbArc
 50
0
 51
90
  0
LINE
  5
A20
330
A02
100
AcDbEntity
  8
Shape2DView004
100
AcDbLine
 10
60
 20
54.5
 30
0
 11
60
 21
40.5
 31
0
  0
ARC
  5
A21
330
A02
100
AcDbEntity
  8
Shape2DView004
100
AcDbCircle
 10
54.5
 20
40.5
 30
0
 40
5.5
100
AcDbArc
 50
-90
 51
0
  0
ENDSEC
  0
SECTION
  2
OBJECTS
  0
DICTIONARY
  5
F000
330
0
100
AcDbDictionary
  3
ACAD_GROUP
350
F001
  0
DICTIONARY
  5
F001
330
F000
100
AcDbDictionary
  0
ENDSEC
  0
EOF